<?xml version="1.0" standalone="no"?>
<!DOCTYPE svg PUBLIC "-//W3C//DTD SVG 20010904//EN"
 "http://www.w3.org/TR/2001/REC-SVG-20010904/DTD/svg10.dtd">
<svg version="1.0" xmlns="http://www.w3.org/2000/svg"
 width="1024.000000pt" height="1024.000000pt" viewBox="0 0 1024.000000 1024.000000"
 preserveAspectRatio="xMidYMid meet">
<metadata>
Created by potrace 1.11, written by Peter Selinger 2001-2013
</metadata>
<g transform="translate(0.000000,1024.000000) scale(0.100000,-0.100000)"
fill="#000000" stroke="none">
<path d="M7725 9898 c-35 -9 -170 -141 -1103 -1077 -584 -586 -1083 -1093
-1109 -1126 -25 -33 -62 -94 -82 -135 -33 -69 -36 -83 -41 -195 -3 -66 -5
-1150 -5 -2410 l1 -2290 24 -45 c23 -40 85 -94 114 -98 38 -7 4532 -6 4563 1
49 9 105 55 128 104 17 36 18 144 17 2313 0 1251 -2 2282 -4 2290 -12 47 -46
88 -99 116 -32 18 -89 19 -1169 20 -624 1 -1137 2 -1140 3 -3 1 -5 563 -5
1250 0 1213 -1 1250 -19 1270 -11 12 -22 21 -25 20 -3 -1 -24 -6 -46 -11z"/>
<path d="M247 7352 c-49 -17 -99 -67 -113 -114 -16 -53 -13 -4581 3 -4600 7
-8 11 -17 8 -20 -11 -11 75 -80 116 -91 34 -10 301 -13 1167 -12 l1122 1 0
-1228 c0 -910 3 -1234 12 -1253 16 -35 67 -34 115 3 20 15 511 502 1091 1082
1101 1100 1118 1119 1174 1258 l23 57 3 2380 c1 1309 0 2395 -3 2413 -3 18
-20 49 -38 69 -64 73 150 67 -2370 68 -1921 1 -2275 -1 -2310 -13z"/>
</g>
</svg>
